HIERARCHY
ROOT Hips
{
  OFFSET 40.9192 92.6879 18.85
  CHANNELS 6 Xposition Yposition Zposition Zrotation Xrotation Yrotation
  JOINT LeftUpLeg
  {
    OFFSET 8.64259 1.95398 -2.38835
    CHANNELS 3 Zrotation Xrotation Yrotation
    JOINT LeftLeg
    {
      OFFSET 43.7702 0 0
      CHANNELS 3 Zrotation Xrotation Yrotation
      JOINT LeftFoot
      {
        OFFSET 40.6238 0 0
        CHANNELS 3 Zrotation Xrotation Yrotation
        JOINT LeftToeBase
        {
          OFFSET 12.7242 0 0
          CHANNELS 3 Zrotation Xrotation Yrotation
          End Site
          {
            OFFSET 0 0 0
          }
        }
      }
    }
  }
  JOINT RightUpLeg
  {
    OFFSET -8.2249 1.95398 -2.59336
    CHANNELS 3 Zrotation Xrotation Yrotation
    JOINT RightLeg
    {
      OFFSET 43.5653 0 0
      CHANNELS 3 Zrotation Xrotation Yrotation
      JOINT RightFoot
      {
        OFFSET 40.6238 0 0
        CHANNELS 3 Zrotation Xrotation Yrotation
        JOINT RightToeBase
        {
          OFFSET 12.7242 0 0
          CHANNELS 3 Zrotation Xrotation Yrotation
          End Site
          {
            OFFSET 0 0 0
          }
        }
      }
    }
  }
  JOINT Spine
  {
    OFFSET 0.165834 0.87714 6.61349
    CHANNELS 3 Zrotation Xrotation Yrotation
    JOINT Spine1
    {
      OFFSET 7.38963 1.71661e-005 0
      CHANNELS 3 Zrotation Xrotation Yrotation
      JOINT Spine2
      {
        OFFSET 11.9445 1.14441e-005 0
        CHANNELS 3 Zrotation Xrotation Yrotation
        JOINT Spine3
        {
          OFFSET 14.7254 4.19617e-005 0
          CHANNELS 3 Zrotation Xrotation Yrotation
          JOINT Spine4
          {
            OFFSET 10.9679 0 0
            CHANNELS 3 Zrotation Xrotation Yrotation
            JOINT RightShoulder
            {
              OFFSET 2.46616 -1.6653 3.69651
              CHANNELS 3 Zrotation Xrotation Yrotation
              JOINT RightArm
              {
                OFFSET 13.0012 0 0
                CHANNELS 3 Zrotation Xrotation Yrotation
                JOINT RightForeArm
                {
                  OFFSET 28.7848 1.52588e-005 0
                  CHANNELS 3 Zrotation Xrotation Yrotation
                  JOINT RightHand
                  {
                    OFFSET 26.5688 1.52588e-005 0
                    CHANNELS 3 Zrotation Xrotation Yrotation
                    End Site
                    {
                      OFFSET 0 0 0
                    }
                  }
                }
              }
            }
            JOINT LeftShoulder
            {
              OFFSET 2.38034 -1.29275 -3.7523
              CHANNELS 3 Zrotation Xrotation Yrotation
              JOINT LeftArm
              {
                OFFSET 16.3182 6.10351e-005 0
                CHANNELS 3 Zrotation Xrotation Yrotation
                JOINT LeftForeArm
                {
                  OFFSET 27.0901 0 0
                  CHANNELS 3 Zrotation Xrotation Yrotation
                  JOINT LeftHand
                  {
                    OFFSET 24.5451 1.52588e-005 0
                    CHANNELS 3 Zrotation Xrotation Yrotation
                    End Site
                    {
                      OFFSET 0 0 0
                    }
                  }
                }
              }
            }
            JOINT Neck
            {
              OFFSET 5.0226 -0.0266342 0
              CHANNELS 3 Zrotation Xrotation Yrotation
              JOINT Head
              {
                OFFSET 6.69363 2.86102e-005 0
                CHANNELS 3 Zrotation Xrotation Yrotation
                End Site
                {
                  OFFSET 0 0 0
                }
              }
            }
          }
        }
      }
    }
  }
}
MOTION
Frames:	7
Frame Time:	0.0416667
38.0388 97.4485 -251.764 -95.2789 -82.2337 -94.3593 -171.606 4.90333 89.7331 -16.2622 12.0064 -2.66317 67.9769 8.96963 8.35441 27.8245 -1.03347 2.37233 174.641 3.11237 91.1749 -14.0581 -8.70577 -0.642761 68.4858 -4.15981 -2.24049 28.9308 0.234564 -3.59865 0.182634 7.21922 -89.8267 12.4348 0.445351 0.295037 0.763912 0.457909 0.275151 -21.7714 0.336087 0.415254 -1.75871 0.336092 0.41525 93.0061 -49.1173 -96.3604 30.2325 -7.73778 1.8619 -15.2969 -31.4653 -45.4069 -2.36892 -0.781725 5.87911 -96.745 -48.8402 68.3665 -24.2981 12.5468 1.73384 4.00798 12.1064 -31.0499 9.83555 0.688339 2.90369 14.0692 2.33583 -3.10907 -5.68363 2.98232 4.35597 
38.4281 97.2328 -251.383 -99.1071 -82.9589 -98.1208 -171.997 4.97984 89.234 -17.8867 11.7932 -2.20147 69.0513 10.8371 8.41684 27.5158 -1.40019 3.27048 173.945 2.80923 90.6911 -15.0731 -7.91412 -0.239668 69.7128 -4.36644 -2.27635 28.971 0.224667 -3.42512 0.14055 7.26813 -89.9239 12.3374 0.315476 0.116377 0.666521 0.320293 0.102361 -21.8688 0.265908 0.205803 -1.85617 0.265921 0.205803 92.2862 -47.0617 -97.8882 31.5679 -7.58531 3.47892 -16.4066 -30.0613 -47.5801 -1.97721 -0.779716 7.16875 -97.4772 -49.7955 67.6044 -24.2193 13.0623 1.85463 3.23942 11.3361 -30.8253 10.1889 0.697664 2.77803 13.0239 2.73766 -0.439876 -3.07822 2.80499 1.62895 
38.966 96.8667 -250.634 -100.008 -83.8805 -98.5858 -172.358 5.50841 89.0822 -19.9095 12.5024 -1.78391 70.4258 12.2893 9.29315 27.5421 -1.41584 3.57349 174.192 3.5082 90.891 -17.5714 -7.0155 -0.366999 71.3417 -5.04574 -2.5718 28.935 0.233225 -3.55202 0.117862 7.30502 -89.9429 12.2637 0.261375 0.0845682 0.592782 0.264842 0.0729714 -21.9425 0.223868 0.159217 -1.92987 0.223873 0.159208 92.6618 -47.3215 -97.2399 31.4913 -7.30871 3.25463 -14.2159 -28.5267 -46.366 -2.36331 -0.782406 7.16616 -97.2808 -49.4335 67.7715 -24.9079 13.5749 2.16562 3.46766 11.5939 -31.5421 9.92663 0.742022 3.31448 12.913 2.50604 -1.28206 -1.94294 2.79013 2.06295 
39.4916 96.3242 -250.049 -100.485 -83.6027 -99.0054 -172.415 6.23769 88.8292 -22.6899 11.7357 -1.79838 72.1703 12.8067 7.95704 28.1279 -0.936976 3.71061 176.076 7.24655 91.7186 -25.4051 -4.00546 -1.73689 71.9139 -5.7324 -2.91144 32.6022 0.316244 -3.80794 0.18262 7.39437 -89.8854 12.0845 0.417236 0.182528 0.413566 0.424861 0.163985 -22.1218 0.343085 0.299492 -2.10919 0.343082 0.299481 92.7848 -47.3386 -97.0406 31.6642 -7.22232 3.02978 -11.7008 -26.7813 -44.7945 -3.53851 -0.763401 5.49839 -97.3863 -49.2771 67.5644 -24.773 14.0916 2.37394 4.12751 12.3211 -32.5711 8.68758 0.587524 2.63674 12.8646 2.23266 -1.79049 -0.509487 2.65642 1.92971 
39.7647 96.0171 -248.999 -98.2659 -83.0371 -98.0846 -172.55 5.41021 87.5395 -22.3948 11.0805 -2.29875 72.1473 12.5548 7.26117 29.4713 0.0937127 4.79917 177.759 14.1288 91.5321 -37.0859 -2.70811 -3.20908 70.7477 -5.46929 -2.83969 37.1143 0.36174 -6.44747 0.151063 7.51848 -89.6465 11.8351 0.466752 0.655216 0.164119 0.495144 0.634028 -22.3699 0.248261 0.765198 -2.3573 0.248268 0.765197 92.3743 -47.4034 -97.6809 31.909 -7.44226 3.37207 -12.1665 -26.9645 -45.6789 -5.32552 -0.832369 4.62732 -97.1063 -49.1404 67.9312 -23.8072 14.5551 2.07433 4.11322 11.493 -34.3657 8.95328 0.69867 3.57636 13.472 2.5128 -1.67475 1.15245 2.94669 2.09002 
40.4071 96.0922 -247.105 -91.9545 -84.3139 -90.2412 -172.044 4.68691 88.842 -21.4735 12.3356 -2.24071 73.2003 13.5539 7.71378 28.4605 -0.489024 2.18819 177.743 18.369 92.9908 -37.8458 -3.62637 -2.14725 69.8293 -5.10944 -2.70679 37.858 0.330967 -8.29277 0.020991 7.52562 -89.8067 11.8223 0.132743 0.371511 0.151266 0.148964 0.365299 -22.3835 0.0149486 0.394228 -2.37081 0.0149473 0.394222 92.3412 -47.6545 -97.6833 32.0792 -7.0631 5.02007 -12.5443 -26.0699 -46.6292 -5.16865 -0.846762 5.13009 -97.9091 -49.3213 66.8104 -22.6675 14.3968 1.28763 4.3197 11.204 -34.9854 7.04568 0.481204 2.57575 13.3157 2.57441 -1.49644 1.04827 3.01231 3.0531 
40.8707 96.101 -244.631 -86.3895 -85.1829 -83.7295 -171.883 2.87973 89.8224 -19.6724 13.6111 -2.06439 73.1917 13.8951 9.15461 29.5714 0.530463 1.03443 177.671 20.8802 93.8289 -31.5023 -3.75255 -1.31597 67.6346 -4.16448 -2.28108 38.0708 0.336474 -7.60361 -0.0706042 7.55432 -89.9417 11.7653 -0.113009 0.12772 0.0943709 -0.107276 0.132566 -22.4408 -0.146169 0.0878514 -2.42818 -0.146164 0.0878556 92.5478 -47.6809 -97.3506 31.9532 -6.73485 6.52183 -13.0348 -26.3974 -46.085 -5.47785 -0.882773 5.23301 -98.1369 -49.0554 66.3844 -22.2464 14.3747 0.412534 4.57863 10.3339 -36.7676 7.69946 0.492455 2.24796 13.2314 2.72696 -1.29055 0.406312 3.14098 3.97595 
